<svg xmlns="http://www.w3.org/2000/svg" viewBox="0.000000 8.400000 19.000000 19.000000">
<defs>
<style>
.cls-1 {
fill: #FFFFFF;
stroke: #95989a;
stroke-width: 1px;
}
</style>
</defs>
<path id="rectangle-1" class="cls-1" d="M 18 8.399999618530273 L 14.5 8.399999618530273 C 13.89999961853027 8.399999618530273 13.5 8.799999237060547 13.5 9.399999618530273 C 13.5 10 13.89999961853027 10.39999961853027 14.5 10.39999961853027 L 17 10.39999961853027 L 17 25.39999961853027 L 2 25.39999961853027 L 2 10.39999961853027 L 4.5 10.39999961853027 C 5.099999904632568 10.39999961853027 5.5 10 5.5 9.399999618530273 C 5.5 8.799999237060547 5.099999904632568 8.399999618530273 4.5 8.399999618530273 L 1 8.399999618530273 C 0.3999999761581421 8.399999618530273 0 8.799999237060547 0 9.399999618530273 L 0 26.39999961853027 C 0 27 0.4000000059604645 27.39999961853027 1 27.39999961853027 L 18 27.39999961853027 C 18.60000038146973 27.39999961853027 19 27 19 26.39999961853027 L 19 9.399999618530273 C 19 8.800000190734863 18.60000038146973 8.399999618530273 18 8.399999618530273 Z" transform="translate(0 0)"/>
</svg>
