<svg xmlns="http://www.w3.org/2000/svg" viewBox="470.000000 376.924988 18.500000 26.499998">
<defs>
<style>
.cls-1 {
fill: #FFFFFF;
stroke: #95989a;
stroke-width: 1px;
}
</style>
</defs>
<path id="rectangle-1" class="cls-1" d="M 9.25 0.4249999523162842 C 8.75 -0.07500001788139343 8 -0.07500001788139343 7.749999046325684 0.4249999523162842 C 4.749999523162842 5.174999237060547 0 12.17499828338623 0 16.67499732971191 C 0 21.67499732971191 4 25.42499732971191 8.75 25.42499732971191 C 13.74999809265137 25.42499732971191 17.5 21.42499542236328 17.5 16.67499732971191 C 17.25 12.42499732971191 12.49999904632568 5.174999237060547 9.25 0.4249999523162842 Z M 8.5 20.67499542236328 C 6.499999523162842 20.67499542236328 4.75 19.17499923706055 4.75 16.92499732971191 C 4.75 14.67499828338623 6.249999523162842 13.17499828338623 8.5 13.17499828338623 C 10.74999904632568 13.17499828338623 12.24999904632568 14.92499828338623 12.24999904632568 16.92499732971191 C 12.24999904632568 18.67499923706055 10.49999904632568 20.42499732971191 8.5 20.67499542236328 Z" transform="translate(470 377)"/>
</svg>
