<svg xmlns="http://www.w3.org/2000/svg" viewBox="1588.000000 7.500000 23.500000 11.000000">
<defs>
<style>
.cls-1 {
fill: #FFFFFF;
stroke: #95989a;
stroke-width: 1px;
}
</style>
</defs>
<path id="rectangle-1" class="cls-1" d="M 1.502458333969116 1.026315808296204 L 1.502458333969116 1.026315808296204 C 0.9472132325172424 1.026315808296204 0.5 1.495540976524353 0.5 2.079011678695679 L 0.5 8.920988082885742 C 0.5 9.501893043518066 0.9490637183189392 9.973684310913086 1.502458333969116 9.973684310913086 L 20.9975414276123 9.973684310913086 C 21.55278587341309 9.973684310913086 22 9.504459381103516 22 8.920988082885742 L 22 2.079011678695679 C 22 1.498106837272644 21.55093574523926 1.026315808296204 20.9975414276123 1.026315808296204 L 1.502458333969116 1.026315808296204 Z M 1.502458333969116 0.5 L 1.502458333969116 0.5 L 20.9975414276123 0.5 C 21.82662010192871 0.5 22.5 1.206947565078735 22.5 2.079011678695679 L 22.5 8.920988082885742 C 22.5 9.796819686889648 21.82732582092285 10.5 20.9975414276123 10.5 L 1.502458333969116 10.5 C 0.6733803153038025 10.5 0 9.793052673339844 0 8.920988082885742 L 0 2.079011678695679 C 0 1.203180551528931 0.6726735234260559 0.5 1.502458333969116 0.5 L 1.502458333969116 0.5 Z" transform="translate(1588 7)"/>
</svg>
