<svg xmlns="http://www.w3.org/2000/svg" viewBox="313.616180 35.066040 22.383774 23.317383">
<defs>
<style>
.cls-1 {
fill: #2C0000;
stroke: #95989a;
stroke-width: 1px;
}
</style>
</defs>
<path id="rectangle-1" class="cls-1" d="M 204.3553771972656 739.3668212890625 C 207.0109252929688 739.9168701171875 209.1165161132812 742.00732421875 209.6743621826172 744.64794921875 C 210.7821807861328 749.59912109375 206.6809692382812 753.89013671875 201.809814453125 753.22216796875 C 198.5964202880859 752.8919677734375 196.04296875 750.25927734375 195.60302734375 747.1785888671875 C 195.0451812744141 742.3375244140625 199.3663787841797 738.2667236328125 204.3553771972656 739.3668212890625 L 204.3553771972656 739.3668212890625 Z M 211.9999542236328 746.7384033203125 C 211.9999542236328 745.96826171875 211.9999542236328 745.1981201171875 211.7799682617188 744.4281005859375 C 211.1121368408203 740.797119140625 208.1187591552734 737.9364013671875 204.4653778076172 737.166259765625 C 198.5964202880859 736.0660400390625 193.3874206542969 740.5770263671875 193.3874206542969 746.2984619140625 C 193.3874206542969 748.3887939453125 194.0473785400391 750.25927734375 195.2730102539062 751.799560546875 C 193.3874206542969 753.662109375 190.7239837646484 756.1927490234375 190.5039825439453 756.4127197265625 C 190.1739959716797 756.8529052734375 189.6161804199219 757.8431396484375 190.3939971923828 758.61328125 C 191.1717987060547 759.3834228515625 192.1696166992188 758.8331298828125 192.6095886230469 758.5032958984375 L 197.3707733154297 753.772216796875 C 198.9263763427734 754.8724365234375 200.8119812011719 755.532470703125 202.9176025390625 755.532470703125 C 207.6787719726562 755.532470703125 211.7799682617188 751.6895751953125 211.9999542236328 746.7384033203125 L 211.9999542236328 746.7384033203125 Z" transform="translate(124 -701)"/>
</svg>
