<svg xmlns="http://www.w3.org/2000/svg" viewBox="28.000000 0.000000 6.500000 6.500000">
<defs>
<style>
.cls-1 {
fill: #FFFFFF;
stroke: #95989a;
stroke-width: 1px;
}
</style>
</defs>
<path id="rectangle-1" class="cls-1" d="M 30.75 5 L 30.75 5 C 31.99264144897461 5 33 3.992640733718872 33 2.75 C 33 1.507359266281128 31.99264144897461 0.5 30.75 0.5 C 29.50735855102539 0.5 28.5 1.507359266281128 28.5 2.75 C 28.5 3.992640733718872 29.50735855102539 5 30.75 5 L 30.75 5 Z M 30.75 5.5 L 30.75 5.5 C 29.23121643066406 5.5 28 4.268783092498779 28 2.75 C 28 1.231216907501221 29.23121643066406 0 30.75 0 C 32.26878356933594 0 33.5 1.231216907501221 33.5 2.75 C 33.5 4.268783092498779 32.26878356933594 5.5 30.75 5.5 L 30.75 5.5 Z" transform="translate(0 0)"/>
</svg>
