<svg xmlns="http://www.w3.org/2000/svg" viewBox="1930.000000 81.500000 8.553406 14.020750">
<defs>
<style>
.cls-1 {
fill: #FFFFFF;
stroke: #95989a;
stroke-width: 1px;
}
</style>
</defs>
<path id="rectangle-1" class="cls-1" d="M 306.4277648925781 14.36894607543945 L 306.4277648925781 10.81073188781738 L 308.1397705078125 12.67517852783203 L 306.4277648925781 14.36894607543945 L 306.4277648925781 14.36894607543945 L 306.4277648925781 14.36894607543945 L 306.4277648925781 14.36894607543945 Z M 308.2183532714844 7.346535682678223 L 306.4277648925781 9.147821426391602 L 306.4277648925781 5.735214233398438 L 308.2183532714844 7.346535682678223 L 308.2183532714844 7.346535682678223 L 308.2183532714844 7.346535682678223 L 308.2183532714844 7.346535682678223 Z M 306.8578796386719 10.01085662841797 L 309.5148315429688 7.346535682678223 L 305.5505981445312 3.5 L 305.4569396972656 3.5 L 305.4569396972656 8.849857330322266 L 302.76611328125 6.028839111328125 L 302 6.829196453094482 L 305.2376403808594 10.01085662841797 L 302 13.19203567504883 L 302.76611328125 13.99239253997803 L 305.4569396972656 11.1713752746582 L 305.4569396972656 16.52075004577637 L 305.6282348632812 16.52075004577637 L 309.5534057617188 12.66457176208496 L 306.8578796386719 10.01085662841797 L 306.8578796386719 10.01085662841797 Z" transform="translate(1628 78)"/>
</svg>
