<svg xmlns="http://www.w3.org/2000/svg" viewBox="530.784851 1203.900024 16.656208 23.712526">
<defs>
<style>
.cls-1 {
fill: #00A9DE;
stroke: #95989a;
stroke-width: 1px;
}
</style>
</defs>
<path id="rectangle-1" class="cls-1" d="M 7.061676979064941 22.1714973449707 C 7.502697944641113 22.61252593994141 8.164225578308105 22.61252593994141 8.384736061096191 22.1714973449707 C 11.25136566162109 17.76130294799805 15.44105529785156 11.80754280090332 15.44105529785156 7.617851734161377 C 15.44105529785156 3.207649707794189 11.91289329528809 -0.09999989718198776 7.723206996917725 -0.09999989718198776 C 3.313007116317749 0.1205099076032639 -0.2151527553796768 3.648669958114624 0.005357164889574051 7.83836030960083 C 0.2258672565221786 11.58702850341797 4.195048332214355 17.98182106018066 7.061676979064941 22.1714973449707 Z M 7.723206996917725 4.310200214385986 C 9.707795143127441 4.310200214385986 11.03085327148438 5.633258819580078 11.03085327148438 7.617851734161377 C 11.03085327148438 9.602443695068359 9.707795143127441 10.92549991607666 7.723206996917725 10.92549991607666 C 5.738616943359375 10.92549991607666 4.636066913604736 9.381931304931641 4.636066913604736 7.617851734161377 C 4.636066913604736 6.07427978515625 6.179637908935547 4.530710220336914 7.723206996917725 4.310200214385986 Z" transform="translate(531 1204)"/>
</svg>
