<svg xmlns="http://www.w3.org/2000/svg" viewBox="755.900024 113.000000 28.000000 21.000000">
<defs>
<style>
.cls-1 {
fill: #FFFFFF;
stroke: #95989a;
stroke-width: 1px;
}
</style>
</defs>
<path id="rectangle-1" class="cls-1" d="M 13.89999961853027 0 C 13.20496368408203 0 12.80780029296875 0.4057970941066742 12.60921859741211 0.7101449370384216 L 3.474467992782593 17.95652198791504 L 1.488652467727661 17.95652198791504 C 0.5950354337692261 17.95652198791504 -0.1000000238418579 18.66666793823242 -0.1000000238418579 19.47826194763184 C -0.1000000238418579 20.28985595703125 0.5950353741645813 21 1.488652467727661 21 L 4.368085384368896 21 L 23.43191337585449 21 L 26.31134605407715 21 C 27.20496368408203 21 27.89999961853027 20.28985595703125 27.89999961853027 19.47826194763184 C 27.89999961853027 18.66666793823242 27.20496368408203 17.95652198791504 26.31134605407715 17.95652198791504 L 24.32553100585938 17.95652198791504 L 15.19077968597412 0.7101449370384216 C 14.99219799041748 0.4057970941066742 14.5950345993042 0 13.89999961853027 0 L 13.89999961853027 0 Z M 13.89999961853027 7.507246494293213 L 19.06311988830566 17.95652198791504 L 8.736879348754883 17.95652198791504 L 13.89999961853027 7.507246494293213 Z" transform="translate(756 113)"/>
</svg>
