<svg xmlns="http://www.w3.org/2000/svg" viewBox="1585.400024 30.900000 11.199999 17.900000">
<defs>
<style>
.cls-1 {
fill: #FFFFFF;
stroke: #95989a;
stroke-width: 1px;
}
</style>
</defs>
<path id="rectangle-1" class="cls-1" d="M 6.199999809265137 5.699999809265137 L 8.5 3.399999856948853 L 8.5 15.79999923706055 C 8.5 16.39999961853027 8.899999618530273 16.79999923706055 9.5 16.79999923706055 C 10.10000038146973 16.79999923706055 10.5 16.39999961853027 10.5 15.79999923706055 L 10.5 3.400000095367432 L 12.80000019073486 5.699999809265137 C 13 5.900000095367432 13.19999980926514 6 13.5 6 C 13.80000019073486 6 14 5.900000095367432 14.19999980926514 5.699999809265137 C 14.59999942779541 5.299999713897705 14.59999942779541 4.699999809265137 14.19999980926514 4.299999713897705 L 10.19999980926514 0.2999997138977051 C 9.800000190734863 -0.1000002920627594 9.199999809265137 -0.1000002920627594 8.800000190734863 0.2999997138977051 L 4.800000190734863 4.299999713897705 C 4.400000095367432 4.699999809265137 4.400000095367432 5.299999713897705 4.800000190734863 5.699999809265137 C 5.200000286102295 6.099999904632568 5.800000190734863 6.099999904632568 6.199999809265137 5.699999809265137 Z" transform="translate(1581 31)"/>
</svg>
