<svg xmlns="http://www.w3.org/2000/svg" viewBox="1274.000000 10.000000 6.500000 6.500000">
<defs>
<style>
.cls-1 {
fill: #FFFFFF;
stroke: #95989a;
stroke-width: 1px;
}
</style>
</defs>
<path id="rectangle-1" class="cls-1" d="M 23.75 5 L 23.75 5 C 24.99264144897461 5 26 3.992640733718872 26 2.75 C 26 1.507359266281128 24.99264144897461 0.5 23.75 0.5 C 22.50735855102539 0.5 21.5 1.507359266281128 21.5 2.75 C 21.5 3.992640733718872 22.50735855102539 5 23.75 5 L 23.75 5 Z M 23.75 5.5 L 23.75 5.5 C 22.23121643066406 5.5 21 4.268783092498779 21 2.75 C 21 1.231216907501221 22.23121643066406 0 23.75 0 C 25.26878356933594 0 26.5 1.231216907501221 26.5 2.75 C 26.5 4.268783092498779 25.26878356933594 5.5 23.75 5.5 L 23.75 5.5 Z" transform="translate(1253 10)"/>
</svg>
