<svg xmlns="http://www.w3.org/2000/svg" viewBox="3.840000 5.810000 20.400000 12.190001">
<defs>
<style>
.cls-1 {
fill: #FFFFFF;
stroke: #95989a;
stroke-width: 1px;
}
</style>
</defs>
<path id="rectangle-1" class="cls-1" d="M 9.109999656677246 6.539999961853027 C 9.460000038146973 5.860000133514404 10.01000022888184 5.809999942779541 10.39000034332275 6.46999979019165 C 11.42000007629395 8.289999961853027 13.05000019073486 11.89000034332275 13.82999992370605 13.39999961853027 C 14.19999980926514 14.11999988555908 14.65999984741211 14.14000034332275 15.10000038146973 13.38000011444092 C 15.76000022888184 12.27000045776367 17.21999931335449 9.960000038146973 17.95000076293945 8.710000038146973 C 18.32999992370605 8.050000190734863 19.01000022888184 8.060000419616699 19.42000007629395 8.699999809265137 C 20.67000007629395 10.65999984741211 23.03000068664551 15.07999992370605 23.8799991607666 16.68000030517578 C 24.23999977111816 17.36000061035156 23.76000022888184 18 23.04999923706055 18 L 4.989999771118164 18 C 4.28000020980835 18 3.839999914169312 17.38999938964844 4.059999942779541 16.63999938964844 C 4.599999904632568 14.77999973297119 7.78000020980835 9.069999694824219 9.109999656677246 6.539999961853027" transform="translate(0 0)"/>
</svg>
