<svg xmlns="http://www.w3.org/2000/svg" viewBox="84.500000 5.500000 13.000000 10.000000">
<defs>
<style>
.cls-1 {
fill: #FFFFFF;
stroke: #95989a;
stroke-width: 1px;
}
</style>
</defs>
<path id="rectangle-1" class="cls-1" d="M 90.49575042724609 7.020876884460449 C 92.43552398681641 7.020876884460449 94.20336151123047 7.735452175140381 95.55885314941406 8.907177925109863 L 96.5 7.868109703063965 C 94.89459991455078 6.474465847015381 92.79788970947266 5.5 90.49575042724609 5.5 C 88.19711303710938 5.5 86.10340118408203 6.47150707244873 84.5 7.86071252822876 L 85.43914794921875 8.901260375976562 C 86.79364013671875 7.732986450195312 88.55847930908203 7.020876884460449 90.49575042724609 7.020876884460449 L 90.49575042724609 7.020876884460449 Z M 90.49575042724609 10.02021884918213 C 91.65831756591797 10.02021884918213 92.72042083740234 10.44235610961914 93.53961181640625 11.13769817352295 L 94.53524017333984 10.03797245025635 C 93.45164489746094 9.107890129089355 92.04217529296875 8.50032901763916 90.49575042724609 8.50032901763916 C 88.95233154296875 8.50032901763916 87.54386138916016 9.106410980224609 86.46126556396484 10.03353404998779 L 87.45539093017578 11.13473987579346 C 88.27408599853516 10.44087696075439 89.33468627929688 10.02021884918213 90.49575042724609 10.02021884918213 L 90.49575042724609 10.02021884918213 Z M 92.54347991943359 12.23742485046387 C 91.98918914794922 11.77731513977051 91.27545928955078 11.45873928070068 90.49525451660156 11.45873928070068 C 89.71654510498047 11.45873928070068 89.00381469726562 11.77682209014893 88.44951629638672 12.23495864868164 L 90.49525451660156 14.5 L 92.54347991943359 12.23742485046387 L 92.54347991943359 12.23742485046387 Z" transform="translate(0 0)"/>
</svg>
